<?xml version="1.0" standalone="no"?>
<!DOCTYPE svg PUBLIC "-//W3C//DTD SVG 20010904//EN"
 "http://www.w3.org/TR/2001/REC-SVG-20010904/DTD/svg10.dtd">
<svg version="1.0" xmlns="http://www.w3.org/2000/svg"
 width="1920.000000pt" height="1080.000000pt" viewBox="0 0 1920.000000 1080.000000"
 preserveAspectRatio="xMidYMid meet">

<g transform="translate(0.000000,1080.000000) scale(0.100000,-0.100000)"
fill="#000000" stroke="none">
<path d="M9200 10709 c-405 -34 -763 -99 -1125 -205 -500 -146 -1011 -385
-1464 -686 -493 -328 -967 -775 -1329 -1256 -512 -679 -858 -1479 -1002 -2317
-97 -569 -102 -1100 -14 -1675 258 -1685 1325 -3170 2846 -3959 631 -328 1293
-522 2013 -591 196 -19 558 -24 765 -11 873 55 1643 282 2375 699 1012 576
1826 1482 2285 2542 298 689 443 1379 443 2115 0 300 -11 458 -54 750 -168
1144 -698 2196 -1518 3016 -289 288 -511 472 -824 681 l-127 86 36 52 c25 37
33 55 24 60 -15 9 -265 50 -304 50 -16 0 -104 38 -206 90 -615 310 -1288 499
-1973 555 -201 16 -678 18 -847 4z m590 -593 c0 -25 6 -48 14 -55 18 -15 25
-5 34 51 l8 43 69 -3 c118 -5 109 12 100 -186 -4 -94 -10 -207 -14 -251 l-6
-80 -52 0 c-29 1 -183 2 -343 3 l-290 2 0 254 0 255 28 4 c15 2 123 5 240 6
l212 1 0 -44z m-676 -38 c12 -117 19 -458 10 -458 -5 0 -54 -7 -109 -15 -54
-8 -100 -13 -101 -12 -5 8 -37 508 -32 512 3 4 52 12 109 19 57 8 107 14 110
15 3 0 9 -27 13 -61z m1291 15 c55 -9 106 -22 114 -29 11 -10 15 -52 19 -166
4 -134 -9 -332 -22 -345 -2 -3 -49 4 -103 15 -54 11 -135 25 -180 32 l-82 12
5 42 c22 196 37 304 50 379 l16 88 42 -6 c22 -3 86 -13 141 -22z m-1575 -278
c7 -124 11 -228 8 -231 -10 -9 -279 -66 -292 -61 -19 7 -288 439 -279 448 14
13 196 59 371 93 l167 33 6 -28 c3 -15 12 -129 19 -254z m2025 180 c55 -15
103 -29 107 -32 4 -2 1 -19 -6 -38 -20 -46 -70 -228 -97 -350 -12 -55 -23
-101 -24 -103 -2 -2 -33 5 -70 15 l-67 18 6 40 c18 125 28 279 24 375 -3 95
-1 109 12 106 8 -3 60 -17 115 -31z m424 -136 c74 -27 138 -52 143 -57 10 -10
-60 -503 -74 -518 -3 -2 -65 20 -139 49 -74 30 -158 62 -186 71 -29 10 -53 24
-53 31 0 54 63 308 102 408 27 70 32 77 51 71 12 -3 82 -28 156 -55z m-3279
14 c0 -10 9 -115 20 -233 11 -118 20 -231 20 -250 l0 -35 -133 -56 c-72 -31
-133 -56 -135 -55 -5 5 -63 528 -59 532 6 6 270 113 280 114 4 0 7 -8 7 -17z
m328 -417 c-8 -7 -200 -68 -203 -64 -4 3 -35 388 -35 429 0 14 48 -53 121
-170 66 -106 119 -194 117 -195z m3365 228 c39 -20 73 -37 74 -38 1 -1 -13
-47 -31 -103 -33 -97 -68 -252 -81 -361 -4 -29 -10 -52 -14 -50 -89 44 -121
65 -121 78 0 16 66 436 76 483 3 15 10 27 15 27 5 0 42 -16 82 -36z m-4124
-231 c12 -92 24 -189 27 -214 l5 -45 -163 -32 c-90 -17 -179 -34 -199 -38
l-36 -6 -6 54 c-4 29 -12 115 -18 192 -12 130 -12 139 5 150 10 6 93 50 185
98 l166 87 7 -39 c4 -21 16 -114 27 -207z m4601 -34 c125 -77 380 -262 515
-373 224 -184 479 -442 672 -681 693 -856 1073 -1920 1073 -2999 0 -509 -71
-960 -227 -1440 -271 -839 -745 -1562 -1403 -2146 -654 -580 -1443 -967 -2300
-1129 -358 -68 -453 -76 -905 -76 -357 1 -418 3 -570 23 -569 75 -1023 208
-1513 443 -503 241 -932 546 -1332 948 -364 366 -643 747 -873 1191 -275 529
-437 1060 -512 1670 -23 182 -31 664 -15 857 113 1389 808 2649 1925 3490 127
95 324 228 330 222 4 -5 25 -248 25 -295 0 -31 -3 -34 -28 -34 -38 0 -67 -22
-59 -45 5 -12 14 -15 30 -11 67 19 64 19 70 -16 4 -18 9 -65 13 -104 l6 -72
-58 -43 c-439 -321 -855 -781 -1143 -1264 -441 -739 -657 -1610 -601 -2420 65
-930 396 -1755 998 -2485 110 -133 396 -421 527 -531 586 -492 1276 -816 2027
-953 399 -73 889 -84 1308 -30 474 62 899 190 1325 398 394 192 665 372 987
655 765 672 1275 1622 1417 2641 115 825 -34 1689 -425 2460 -290 574 -703
1075 -1213 1471 l-34 27 22 86 c18 70 20 90 10 102 -18 22 -32 3 -59 -78 -12
-38 -23 -68 -25 -68 -2 0 -50 33 -107 73 -58 39 -128 86 -156 102 -46 27 -52
34 -52 64 0 49 28 229 56 361 36 169 26 156 92 119 31 -17 113 -67 182 -110z
m-2320 -246 l92 -6 -4 -51 c-3 -28 -13 -115 -24 -194 -23 -180 -24 -178 84
-175 159 3 293 56 404 161 38 36 83 86 99 109 17 24 37 43 47 43 9 0 58 -12
109 -26 109 -31 105 -23 68 -162 -25 -94 -46 -144 -72 -174 -8 -9 -12 -21 -9
-26 22 -37 123 67 177 183 21 45 39 88 39 94 0 6 7 11 15 11 20 0 157 -53 297
-115 l108 -47 -7 -42 c-9 -63 -20 -85 -48 -98 -14 -6 -24 -18 -23 -26 2 -10
33 -14 143 -17 77 -1 151 -5 165 -6 38 -6 39 27 0 34 -22 5 -30 12 -30 27 0
20 2 20 48 -7 26 -15 92 -56 146 -91 l99 -64 -57 -51 c-31 -29 -75 -68 -97
-87 -23 -19 -65 -57 -95 -85 -30 -27 -82 -75 -116 -105 -33 -30 -100 -91 -148
-135 -48 -44 -140 -129 -206 -188 -65 -59 -150 -136 -187 -170 -45 -41 -97
-104 -152 -187 -45 -69 -127 -188 -181 -265 -54 -77 -141 -206 -193 -287 -53
-81 -170 -255 -261 -388 -91 -132 -210 -310 -265 -394 -55 -84 -112 -169 -127
-187 l-27 -34 -25 30 c-15 17 -48 66 -76 110 -27 44 -135 206 -240 360 -104
154 -225 333 -267 398 -43 65 -139 206 -213 315 -74 108 -171 253 -216 322
-96 146 -93 142 -359 385 -60 55 -141 129 -180 165 -76 69 -198 179 -273 245
-71 62 -131 117 -172 155 -21 19 -61 56 -89 81 l-52 46 63 40 c103 65 108 67
108 43 0 -12 -11 -31 -24 -43 -16 -15 -22 -28 -17 -36 7 -11 22 -8 72 12 63
25 150 44 219 49 24 2 36 8 38 21 3 13 -4 17 -32 17 -34 0 -36 2 -51 52 -8 28
-14 53 -12 54 1 2 50 26 107 53 l105 50 7 -54 c10 -74 -3 -103 -52 -122 -22
-9 -40 -23 -40 -30 0 -12 15 -14 88 -9 129 10 171 16 178 28 8 13 -14 28 -41
28 -38 1 -45 15 -53 103 l-8 87 81 31 c87 33 295 103 335 112 23 5 33 -6 109
-119 113 -167 146 -204 179 -204 48 0 101 12 105 24 3 6 -1 92 -8 191 -7 99
-11 183 -9 186 4 7 184 33 189 27 2 -2 1 -86 -2 -186 l-6 -183 -28 -6 c-34 -6
-51 -24 -40 -41 5 -9 23 -8 77 4 51 12 148 17 376 21 218 4 312 9 324 18 20
14 33 84 33 183 1 56 -2 72 -13 72 -10 0 -19 -20 -26 -56 -16 -78 -83 -147
-155 -162 -60 -12 -271 -1 -301 16 -33 18 -44 63 -51 208 l-6 133 44 4 c79 7
394 7 489 0z m473 -59 l87 -16 -32 -61 c-18 -34 -60 -89 -93 -123 -59 -59
-158 -119 -178 -107 -9 5 -1 318 9 334 4 6 63 -1 207 -27z m-2763 21 c0 -2
-21 -16 -47 -29 -27 -13 -103 -58 -170 -99 l-122 -75 -6 31 c-4 18 -5 53 -3
77 l3 45 155 26 c171 29 190 31 190 24z m1316 -39 c3 -7 4 -35 2 -62 l-3 -48
-32 53 c-18 29 -33 54 -33 56 0 4 28 12 48 14 7 0 15 -5 18 -13z m-1456 -625
c9 -18 93 -250 127 -351 8 -25 28 -79 43 -120 15 -41 33 -91 40 -110 7 -19 21
-57 32 -85 11 -27 24 -63 29 -80 14 -49 54 -159 63 -174 5 -7 12 -27 17 -45
10 -40 36 -112 54 -153 8 -17 15 -38 15 -46 0 -9 10 -37 22 -64 12 -26 22 -51
22 -55 1 -3 50 -78 109 -165 137 -202 177 -261 274 -407 43 -65 116 -176 162
-245 47 -69 151 -225 232 -346 81 -121 163 -242 182 -270 19 -27 105 -157 191
-287 l158 -237 -95 -143 c-53 -79 -136 -201 -184 -273 -49 -71 -208 -308 -354
-525 -146 -217 -335 -497 -420 -623 -206 -304 -225 -333 -288 -435 -30 -48
-76 -114 -101 -147 -26 -33 -60 -82 -75 -110 -16 -27 -61 -95 -100 -150 -114
-159 -185 -277 -185 -305 0 -124 126 -272 310 -365 119 -60 210 -77 291 -55
40 11 51 25 188 230 49 74 124 185 166 245 43 61 120 175 172 255 52 80 108
163 124 185 43 61 556 822 624 928 33 51 76 115 96 142 20 28 54 82 77 120 52
89 210 310 222 310 9 0 149 -193 197 -273 41 -67 203 -314 274 -417 33 -49 94
-139 133 -200 40 -60 162 -243 272 -405 110 -162 230 -342 268 -400 37 -58
108 -163 158 -235 49 -71 133 -195 185 -275 113 -171 158 -219 205 -221 139
-6 238 29 392 137 122 85 205 230 180 314 -8 26 -69 120 -319 485 -51 75 -119
176 -246 370 -29 44 -131 197 -228 340 -96 143 -209 312 -250 375 -42 63 -149
222 -238 355 -89 132 -241 358 -339 502 l-176 262 88 132 c49 72 136 203 194
290 87 131 336 501 523 776 23 34 60 92 82 129 22 37 67 104 101 148 33 45 79
113 101 151 23 39 67 106 99 150 127 176 125 173 182 338 10 28 24 68 31 87 7
19 19 56 27 82 8 26 19 50 24 53 6 3 10 13 10 21 0 9 10 43 23 77 13 34 29 78
36 97 61 163 86 235 107 300 14 41 31 88 39 105 8 16 31 80 52 142 21 62 41
113 45 113 3 0 64 -46 135 -102 163 -129 437 -404 577 -578 688 -860 976
-1947 795 -3000 -228 -1328 -1158 -2455 -2429 -2943 -653 -251 -1382 -316
-2083 -187 -903 166 -1750 682 -2322 1415 -463 593 -729 1260 -805 2020 -15
146 -15 488 0 650 90 985 589 1934 1355 2576 106 88 277 219 287 219 4 0 12
-9 18 -19z m575 -417 c134 -126 260 -242 300 -276 22 -18 56 -49 75 -68 20
-19 57 -52 82 -73 89 -71 74 -153 -51 -277 -83 -83 -168 -133 -285 -169 -77
-24 -123 -26 -160 -9 -27 12 -60 70 -71 128 -4 19 -20 64 -36 99 -16 35 -29
69 -29 76 0 7 -7 26 -15 41 -8 16 -15 37 -15 47 0 10 -5 27 -11 38 -9 18 -103
278 -116 322 -3 9 0 17 7 17 21 0 211 122 227 146 8 13 18 24 22 24 3 0 38
-30 76 -66z m3433 46 c14 -23 186 -138 220 -146 24 -7 27 -16 12 -42 -9 -15
-62 -161 -115 -317 -10 -27 -23 -63 -30 -80 -17 -41 -32 -84 -71 -199 -19 -55
-39 -105 -45 -112 -24 -29 -88 -36 -161 -20 -201 45 -418 230 -418 355 0 54 2
56 224 251 71 63 145 130 164 149 49 49 196 181 202 181 3 0 11 -9 18 -20z
m-530 -779 c105 -103 293 -191 406 -191 20 0 36 -4 36 -10 0 -5 -38 -65 -85
-132 -47 -68 -102 -149 -123 -181 -51 -79 -143 -217 -365 -544 -104 -153 -212
-312 -240 -355 -29 -42 -64 -98 -79 -125 -15 -26 -52 -82 -82 -123 -30 -41
-109 -156 -175 -255 -66 -99 -153 -227 -192 -285 -40 -58 -161 -238 -269 -400
-108 -162 -247 -369 -308 -460 -60 -91 -241 -361 -402 -600 -160 -239 -301
-440 -313 -447 -45 -25 -153 -7 -254 42 -29 14 -55 25 -59 25 -8 0 -83 59
-127 100 -47 44 -91 112 -107 166 -12 38 -10 46 14 90 15 27 53 85 86 129 32
44 78 111 102 148 62 98 165 252 274 407 51 74 108 159 126 189 18 29 70 108
115 175 45 66 207 308 359 536 152 228 289 433 305 455 15 22 206 306 424 630
217 325 428 638 468 696 39 59 94 142 122 185 27 44 72 108 100 144 27 36 66
91 85 123 l34 57 28 -61 c19 -43 49 -82 96 -128z m-2271 74 c23 -33 77 -113
120 -178 43 -65 111 -167 151 -225 39 -59 160 -240 268 -402 108 -162 254
-380 324 -485 69 -104 130 -195 134 -202 3 -7 -28 -63 -72 -130 -44 -65 -110
-165 -147 -223 -84 -127 -174 -254 -184 -258 -4 -1 -41 46 -81 105 -41 60
-116 168 -168 241 -51 73 -109 159 -127 192 -19 33 -68 108 -110 168 -42 59
-139 202 -215 317 -77 116 -167 248 -200 295 -34 47 -71 103 -82 125 -11 22
-63 100 -115 173 -52 73 -106 153 -120 178 l-25 44 42 0 c64 0 127 18 230 67
80 38 108 59 176 127 49 49 89 101 103 131 l24 50 16 -25 c9 -14 35 -52 58
-85z m1743 -2605 c74 -107 150 -222 169 -255 37 -62 128 -196 265 -389 43 -61
92 -136 109 -166 17 -30 67 -107 112 -170 46 -63 97 -139 115 -169 32 -51 33
-56 22 -97 -27 -101 -126 -210 -252 -277 -116 -61 -266 -85 -309 -49 -19 16
-215 307 -876 1300 -30 46 -33 56 -24 75 17 31 294 445 369 549 l33 47 67
-102 c36 -56 126 -190 200 -297z m4364 -431 c-7 -12 -41 -12 -49 0 -6 11 23
20 42 13 7 -2 10 -8 7 -13z m-6740 -1144 c39 -59 141 -155 210 -197 102 -63
175 -88 256 -91 l66 -2 -56 -80 c-31 -44 -65 -94 -75 -112 -30 -51 -73 -61
-168 -39 -81 19 -185 68 -257 122 -80 60 -94 77 -145 181 -34 69 -27 94 61
218 l67 95 13 -35 c6 -19 19 -46 28 -60z m3452 -23 c76 -111 82 -139 45 -214
-60 -124 -216 -241 -378 -283 -85 -22 -139 -20 -164 8 -26 28 -149 202 -149
211 0 3 25 6 55 6 79 0 145 24 272 100 104 62 233 208 233 265 0 26 16 9 86
-93z"/>
</g>
</svg>
